Coordinates
version=1
nRows=11
nColumns=63
inDegrees=yes

Units are S.I. units (second, meters, Newtons, ...)
If the header above contains a line with 'inDegrees', this indicates whether rotational values are in degrees (yes) or radians (no).

endheader
time	pelvis_tilt	pelvis_list	pelvis_rotation	pelvis_tx	pelvis_ty	pelvis_tz	hip_flexion_r	hip_adduction_r	hip_rotation_r	knee_angle_r	knee_angle_r_beta	ankle_angle_r	subtalar_angle_r	mtp_angle_r	hip_flexion_l	hip_adduction_l	hip_rotation_l	knee_angle_l	knee_angle_l_beta	ankle_angle_l	subtalar_angle_l	mtp_angle_l	L5_S1_Flex_Ext	L5_S1_Lat_Bending	L5_S1_axial_rotation	L4_L5_Flex_Ext	L4_L5_Lat_Bending	L4_L5_axial_rotation	L3_L4_Flex_Ext	L3_L4_Lat_Bending	L3_L4_axial_rotation	L2_L3_Flex_Ext	L2_L3_Lat_Bending	L2_L3_axial_rotation	L1_L2_Flex_Ext	L1_L2_Lat_Bending	L1_L2_axial_rotation	L1_T12_Flex_Ext	L1_T12_Lat_Bending	L1_T12_axial_rotation	Abs_r3	Abs_r2	Abs_r1	Abs_t1	Abs_t2	neck_flexion	neck_bending	neck_rotation	arm_flex_r	arm_add_r	arm_rot_r	elbow_flex_r	pro_sup_r	wrist_flex_r	wrist_dev_r	arm_flex_l	arm_add_l	arm_rot_l	elbow_flex_l	pro_sup_l	wrist_flex_l	wrist_dev_l
      4.67857143	     -2.33953558	    -13.12092472	     94.07688214	      0.06534055	      1.08189027	      0.27503756	     12.74816526	     -4.76728099	    -22.59852041	     17.42988725	      0.30420892	     39.34387855	     15.04487177	      0.00000000	     11.74862531	      4.41341116	     16.02387007	     10.19494160	      0.17793530	     28.58360909	     -8.87420318	      0.00000000	     -0.42485012	      1.22997381	      1.89789514	     -0.78898915	      1.63586516	      2.01651359	     -0.69798626	      2.99055831	      2.01651359	     -0.48556120	      2.99055831	      1.66065825	     -0.39451582	      2.50816259	      1.54203980	     -0.24275936	      1.90522943	      1.42342135	     -3.03466191	     13.91370969	     10.55552340	      0.00000000	      0.00000000	     13.13819659	     20.08393597	      2.09448958	    -53.70239924	    -67.05416198	    -21.29756403	     10.51914452	      7.10912867	     -2.04128463	      4.50293083	    136.68282871	    -96.36813721	   -130.29369165	      1.62308450	     25.67606241	    -13.55156150	      2.58634035
      4.69642857	     -1.32414287	    -12.86463792	     95.15571568	      0.06165002	      1.08242439	      0.27536200	     12.28584541	     -3.81644618	    -22.43342208	     17.03105353	      0.29724796	     38.37764411	     13.34652291	      0.00000000	     11.50696323	      3.71281843	     18.08830491	     10.34471863	      0.18054940	     28.21798012	    -10.22751794	      0.00000000	     -0.41323826	      1.45953358	      1.96507709	     -0.76742477	      1.94117966	      2.08789441	     -0.67890913	      3.54870994	      2.08789441	     -0.47229001	      3.54870994	      1.71944246	     -0.38373305	      2.97628087	      1.59662514	     -0.23612434	      2.26081751	      1.47380782	     -2.95171955	     16.51053572	     10.92916927	      0.00000000	      0.00000000	     14.06764186	     18.25802468	      2.12925824	    -59.06045688	    -66.97916075	    -21.08599404	     11.11675960	      8.13381286	     -3.17042672	      3.63421150	    155.29141563	    -96.35113148	   -109.83968819	      1.23891958	     29.48299576	    -13.52483762	      6.01218913
      4.71428571	     -1.00942554	    -13.15281953	     95.39473888	      0.06049737	      1.08173879	      0.27591257	     12.78485994	     -3.69385111	    -22.63355271	     17.46566333	      0.30483333	     38.08435866	     13.15197553	      0.00000000	     11.67313647	      3.41509001	     18.31357974	     10.14030483	      0.17698171	     28.03149470	    -10.06181457	      0.00000000	     -0.37786841	      1.55377009	      1.93922513	     -0.70173943	      2.06651423	      2.06042670	     -0.62080002	      3.77783661	      2.06042670	     -0.43186581	      3.77783661	      1.69682199	     -0.35088861	      3.16844798	      1.57562042	     -0.21591401	      2.40678988	      1.45441885	     -2.69907630	     17.57655806	     10.78538840	      0.00000000	      0.00000000	     15.62583578	     17.64114844	      2.06303168	    -59.75097406	    -67.51672319	    -20.09914151	     11.20546597	      9.11062617	     -3.44000089	      3.42211429	    154.42853830	    -96.28388216	   -108.77309980	      1.31165974	     30.46141264	    -13.32565475	      7.14833474
      4.73214286	     -0.92170516	    -13.23892525	     95.85686756	      0.05899291	      1.08139546	      0.27592600	     12.90616107	     -3.78456885	    -22.82376704	     17.70838151	      0.30906956	     37.94911154	     12.83024232	      0.00000000	     11.78286090	      3.44280351	     18.96255476	     10.30479624	      0.17985262	     28.20195499	     -9.88317333	      0.00000000	     -0.34160893	      1.62963911	      1.85323893	     -0.63440195	      2.16742001	      1.96906636	     -0.56122931	      3.96230452	      1.96906636	     -0.39042485	      3.96230452	      1.62158406	     -0.31721805	      3.32316007	      1.50575663	     -0.19519534	      2.52431098	      1.38992920	     -2.44007844	     18.43480350	     10.30715894	      0.00000000	      0.00000000	     16.19261494	     16.75760726	      1.95685871	    -61.21303717	    -68.87957601	    -11.18156161	     10.89078225	     12.97108430	     -4.39058114	      2.19147928	    157.77418715	    -96.04629438	   -101.57948040	      1.09819998	     38.91540282	    -13.25389159	     10.33853638
      4.75000000	     -0.73111740	    -13.57822844	     95.93692163	      0.05772533	      1.08061328	      0.27627541	     13.53283933	     -3.81584581	    -22.86706601	     18.28501928	      0.31913379	     37.93440210	     12.64687929	      0.00000000	     12.13175576	      3.31689534	     19.28097972	     10.25480805	      0.17898016	     28.43618465	     -9.64598290	      0.00000000	     -0.28088932	      1.72409811	      1.79324496	     -0.52163955	      2.29305048	      1.90532277	     -0.46147306	      4.19197214	      1.90532277	     -0.32102840	      4.19197214	      1.56908934	     -0.26083382	      3.51578086	      1.45701153	     -0.16050016	      2.67062797	      1.34493372	     -2.00636431	     19.50334262	      9.97349047	      0.00000000	      0.00000000	     17.01798674	     15.31077215	      2.04270827	    -62.64695198	    -69.87274209	    -10.45016780	     11.22118115	     12.91049018	     -3.77779807	      2.46892176	    156.67110533	    -96.12188577	    -98.50344164	      0.94681483	     41.74905755	    -13.61665950	     11.49366888
      4.76785714	     -0.29002038	    -13.37377036	     96.09421539	      0.05611396	      1.08116351	      0.27676360	     13.48058565	     -3.53014726	    -23.25513148	     18.54821298	      0.32372739	     37.78261537	     12.78720880	      0.00000000	     11.92068455	      2.86030331	     19.66061785	     10.05793913	      0.17554415	     28.81545632	     -8.93536528	      0.00000000	     -0.25566581	      1.88526328	      1.99750971	     -0.47479698	      2.50740016	      2.12235407	     -0.42003336	      4.58382913	      2.12235407	     -0.29220046	      4.58382913	      1.74782100	     -0.23741127	      3.84442887	      1.62297664	     -0.14608744	      2.92027282	      1.49813228	     -1.82619533	     21.32647524	     11.10954977	      0.00000000	      0.00000000	     17.29987429	     13.53772290	      2.25777635	    -67.63708596	    -69.58031019	     -8.89158062	     11.56123686	      7.60051406	     -3.13214810	      2.01639797	    179.08431977	    -96.32616285	    -75.90792569	      0.95932787	     50.44867263	    -13.47384431	     14.16840843
      4.78571429	     -0.42830619	    -13.58897075	     95.91661306	      0.05608298	      1.08085288	      0.27683461	     13.97167723	     -3.78884319	    -23.23914025	     19.11941531	      0.33369675	     37.96947434	     12.72618568	      0.00000000	     11.95625229	      2.89773661	     19.97177675	      9.62815516	      0.16804301	     28.78845095	     -8.57201446	      0.00000000	     -0.21334052	      1.93707469	      1.97915720	     -0.39619469	      2.57630934	      2.10285453	     -0.35049715	      4.70980340	      2.10285453	     -0.24382688	      4.70980340	      1.73176255	     -0.19810801	      3.95008271	      1.60806523	     -0.12190277	      3.00052870	      1.48436790	     -1.52387002	     21.91257632	     11.00747862	      0.00000000	      0.00000000	     17.01498008	     12.71378648	      3.25182488	    -67.42734568	    -69.86848087	     -9.50919264	     11.32254028	      7.15987659	     -2.24455033	      2.29248633	    179.29531950	    -96.33962356	    -75.95706139	      0.92234944	     50.09521389	    -14.37570072	     14.20124984
      4.80357143	     -0.29217284	    -13.74833412	     95.60334613	      0.05571646	      1.08076209	      0.27661430	     14.30858661	     -3.71007475	    -23.28762966	     19.40086929	      0.33860905	     38.02128740	     12.86780167	      0.00000000	     11.97519851	      2.66749671	     20.35181352	      9.36061251	      0.16337351	     28.77062021	     -8.49572999	      0.00000000	     -0.18113420	      2.03690756	      1.99158901	     -0.33638433	      2.70908706	      2.11606333	     -0.29758538	      4.95253705	      2.11606333	     -0.20701828	      4.95253705	      1.74264039	     -0.16820122	      4.15366190	      1.61816607	     -0.10350008	      3.15516981	      1.49369176	     -1.29382350	     23.04190573	     11.07662061	      0.00000000	      0.00000000	     16.55519770	     11.59927955	      5.18708725	    -68.88719804	    -69.49803437	    -19.11416076	     12.17479640	      7.26426472	     -0.66883215	      3.51589569	    177.19933566	    -96.64249580	    -77.73881222	      0.91198745	     41.94655696	    -15.75389941	     12.97326449
      4.82142857	     -0.43473407	    -13.93078727	     95.24355391	      0.05613517	      1.08074842	      0.27649541	     14.79239813	     -3.89551697	    -23.12990134	     19.93121397	      0.34786531	     38.19803744	     12.76531601	      0.00000000	     11.92807579	      2.64000681	     20.54230833	      9.00678533	      0.15719806	     28.49488394	     -8.32785103	      0.00000000	     -0.14740493	      2.07852784	      2.02662298	     -0.27374569	      2.76444203	      2.15328692	     -0.24217155	      5.05373259	      2.15328692	     -0.16846909	      5.05373259	      1.77329511	     -0.13688022	      4.23853397	      1.64663117	     -0.08422718	      3.21963962	      1.51996724	     -1.05289865	     23.51272263	     11.27146905	      0.00000000	      0.00000000	     15.77367988	     10.71579586	      6.51271700	    -68.59106959	    -69.40606718	    -19.84229940	     11.94696795	      6.62193704	     -0.00399317	      3.40304079	    178.03773271	    -96.66910315	    -78.86151267	      0.94316269	     40.85408025	    -16.99482628	     12.85635263
      4.83928571	     -0.14305101	    -14.18881759	     94.54962869	      0.05664375	      1.08074600	      0.27601796	     15.31064026	     -3.43053934	    -22.26507659	     19.97435839	      0.34861832	     38.11913022	     12.54312021	      0.00000000	     11.91609373	      2.20288382	     21.50165247	      8.72753533	      0.15232423	     27.95040643	    -10.02160004	      0.00000000	     -0.13993999	      2.16776030	      1.97522465	     -0.25988255	      2.88312120	      2.09867620	     -0.22990740	      5.27069239	      2.09867620	     -0.15993741	      5.27069239	      1.72832157	     -0.12994827	      4.42049680	      1.60487003	     -0.07996171	      3.35786070	      1.48141849	     -0.99957732	     24.52213805	     10.98560696	      0.00000000	      0.00000000	     15.36449737	     10.01292191	      8.86107208	    -68.54029123	    -69.59952742	    -29.85631044	     13.22807095	      6.68362317	      0.92586928	      5.48436192	    163.19482455	    -97.23729033	    -97.27030106	      0.89150646	     32.92861776	    -19.68642421	      8.81534043
      4.85714286	     -0.06851990	    -14.36571957	     93.91739275	      0.05775976	      1.08094864	      0.27569399	     15.85859628	     -3.17850340	    -21.35348070	     20.14670019	      0.35162625	     38.37255042	     12.46890503	      0.00000000	     11.83296038	      1.89591888	     21.64048875	      8.53719448	      0.14900215	     27.59846315	    -10.68431963	      0.00000000	     -0.13889330	      2.20484944	      1.97555909	     -0.25793875	      2.93244975	      2.09903154	     -0.22818780	      5.36087092	      2.09903154	     -0.15874115	      5.36087092	      1.72861421	     -0.12897632	      4.49612897	      1.60514176	     -0.07936363	      3.41531178	      1.48166932	     -0.99210096	     24.94169781	     10.98746700	      0.00000000	      0.00000000	     14.90967029	      9.47114724	     10.03920416	    -66.41667087	    -69.09984350	    -40.14369636	     14.33214443	      5.62570218	      1.01311225	      8.38528129	    155.39886940	    -97.58715343	   -109.48056462	      0.88894491	     33.83362283	    -21.84131967	      7.11342223
